<svg width="36" height="28" viewBox="0 0 36 28" fill="none" xmlns="http://www.w3.org/2000/svg">
<path d="M31.1222 2.11438L35.4964 10.9769C35.0798 11.1739 34.7067 11.4493 34.3982 11.7875C34.0889 12.1267 33.8508 12.5225 33.6973 12.9521C33.5439 13.3817 33.4782 13.8368 33.504 14.2914C33.5298 14.746 33.6466 15.1911 33.8477 15.6013L9.59817 27.1074C9.39587 26.6974 9.11323 26.3306 8.76643 26.0279C8.41963 25.7253 8.01547 25.4927 7.57705 25.3435C7.13864 25.1943 6.67457 25.1314 6.21139 25.1585C5.74821 25.1855 5.295 25.3019 4.87768 25.5011L0.499998 16.6323C0.918002 16.4352 1.29235 16.1592 1.60165 15.82C1.91094 15.4808 2.14911 15.0851 2.30255 14.6554C2.45599 14.2258 2.52169 13.7707 2.49589 13.3161C2.47008 12.8616 2.35329 12.4164 2.15217 12.0062L26.4017 0.500105C26.8103 1.32821 27.5368 1.9633 28.4219 2.26595C29.3069 2.56861 30.2781 2.51409 31.1222 2.11438Z" fill="#8D8D8D"/>
<path d="M35.4999 10.9841L31.1222 2.11438C30.2781 2.51409 29.3069 2.56861 28.4219 2.26595C27.5368 1.9633 26.8103 1.32821 26.4017 0.500105L2.15217 12.0062C2.35329 12.4164 2.47008 12.8616 2.49589 13.3161C2.52169 13.7707 2.45599 14.2258 2.30255 14.6554C2.14911 15.0851 1.91094 15.4808 1.60165 15.82C1.29235 16.1592 0.918002 16.4352 0.499998 16.6323L4.87768 25.5011C5.295 25.3019 5.74821 25.1855 6.21139 25.1585C6.67457 25.1314 7.13864 25.1943 7.57705 25.3435C8.01547 25.4927 8.41963 25.7253 8.76643 26.0279C9.11323 26.3306 9.39587 26.6974 9.59817 27.1074L33.8477 15.6013C33.6466 15.1911 33.5298 14.746 33.504 14.2914C33.4782 13.8368 33.5439 13.3817 33.6973 12.9521C33.8508 12.5225 34.0889 12.1267 34.3982 11.7875C34.7075 11.4483 35.0819 11.1723 35.4999 10.9753L31.1222 2.10645" stroke="#8D8D8D" stroke-linecap="round" stroke-linejoin="round"/>
</svg>
