<svg width="36" height="28" viewBox="0 0 36 28" fill="none" xmlns="http://www.w3.org/2000/svg">
<path d="M31.1222 2.11447L35.4964 10.9775C35.0798 11.1745 34.7067 11.4499 34.3982 11.7882C34.0889 12.1274 33.8508 12.5232 33.6973 12.9528C33.5439 13.3825 33.4782 13.8376 33.504 14.2922C33.5298 14.7468 33.6466 15.192 33.8477 15.6022L9.59817 27.109C9.39587 26.699 9.11323 26.3321 8.76643 26.0294C8.41963 25.7267 8.01547 25.4942 7.57705 25.345C7.13864 25.1958 6.67457 25.1329 6.21139 25.1599C5.74821 25.187 5.295 25.3034 4.87768 25.5025L0.499998 16.6332C0.918002 16.4361 1.29235 16.1601 1.60165 15.8209C1.91094 15.4817 2.14911 15.0859 2.30255 14.6563C2.45599 14.2266 2.52169 13.7715 2.49589 13.3169C2.47008 12.8623 2.35329 12.4171 2.15217 12.0069L26.4017 0.500105C26.8103 1.32826 27.5368 1.96339 28.4219 2.26606C29.3069 2.56873 30.2781 2.51421 31.1222 2.11447Z" fill="white"/>
<path d="M35.4999 10.9847L31.1222 2.11447C30.2781 2.51421 29.3069 2.56873 28.4219 2.26606C27.5368 1.96339 26.8103 1.32826 26.4017 0.500105L2.15217 12.0069C2.35329 12.4171 2.47008 12.8623 2.49589 13.3169C2.52169 13.7715 2.45599 14.2266 2.30255 14.6563C2.14911 15.0859 1.91094 15.4817 1.60165 15.8209C1.29235 16.1601 0.918002 16.4361 0.499998 16.6332L4.87768 25.5025C5.295 25.3034 5.74821 25.187 6.21139 25.1599C6.67457 25.1329 7.13864 25.1958 7.57705 25.345C8.01547 25.4942 8.41963 25.7267 8.76643 26.0294C9.11323 26.3321 9.39587 26.699 9.59817 27.109L33.8477 15.6022C33.6466 15.192 33.5298 14.7468 33.504 14.2922C33.4782 13.8376 33.5439 13.3825 33.6973 12.9528C33.8508 12.5232 34.0889 12.1274 34.3982 11.7882C34.7075 11.449 35.0819 11.1729 35.4999 10.9759L31.1222 2.10654" stroke="white" stroke-linecap="round" stroke-linejoin="round"/>
</svg>
